<?xml version="1.0" standalone="no"?>
<svg version="1.0" xmlns="http://www.w3.org/2000/svg"
 width="1024" height="276.742" viewBox="0 0 1024 276.742">
<metadata>
</metadata>
<g transform="translate(0.000000,91.000000) scale(0.100000,-0.100000)"
fill="#ff0000" >
<path d="M584 701 c-17 -11 -36 -34 -43 -52 -14 -41 -15 -375 0 -417 26 -75
157 -82 225 -11 l29 30 3 189 c3 159 1 194 -1111 -4 -198 -10 -210 -16 -29 -64 -49 -119 -49
-45 0 -51 3 -69 33 -19 29 -20 47 -19 220 l2 189 28 24 c36 31 107 33 155 4z"/>
<path d="M645 660 c-41 -16 -44 -31 -45 -190 -1 -85 -1 -165 0 -177 0 -29 34
-63 61 -63 12 0 33 13 47 28 l27 29 -5 172 c-5 167 -6 174 -29 192 -26 21 -27
21 -56 9z m54 -34 c8 -9 11 -66 9 -182 l-3 -168 -28 -16 c-26 -14 -29 -14 -43
4 -19 26 -21 345 -2 364 16 16 53 15 67 -2z"/>
<path d="M2388 704 c-53 -28 -61 -61 -62 -259 0 -161 2 -183 19 -213 36 -61
133 -90 195 -59 37 18 60 72 60 143 l0 61 -44 0 -44 1 -4 -60 c-5 -71 -25 -92
-61 -65 -14 10 -17 36 -18 191 -1 182 2 195 38 196 23 0 43 -32 43 -70 0 -38
0 -38 45 -42 l45 -3 0 50 c0 62 -15 93 -59 122 -40 27 -111 30 -153 7z m154
-41 c19 -18 25 -33 23 -52 -2 -14 -4 -34 -4 -43 -2 -31 -31 -8 -31 23 0 60
-65 89 -108 49 -21 -20 -22 -29 -22 -196 0 -172 0 -175 25 -199 13 -14 34 -25
46 -25 32 0 63 40 67 86 6 70 22 60 26 -16 3 -42 -1 -57 -19 -78 -20 -23 -31
-27 -70 -25 -25 1 -57 9 -70 17 -48 32 -53 57 -51 252 2 164 4 183 22 202 42
45 120 47 166 5z"/>
<path d="M2693 700 c-43 -26 -56 -55 -56 -120 0 -68 9 -86 89 -171 69 -74 95
-130 75 -168 -25 -45 -71 -19 -71 41 0 30 -4 38 -19 38 -10 0 -33 3 -51 7
l-33 6 5 -49 c9 -93 48 -139 133 -155 89 -17 140 34 140 136 -1 73 -17 106
-95 190 -64 69 -88 121 -70 155 8 15 19 20 38 18 23 -3 27 -8 30 -40 l3 -38
51 0 51 0 -7 41 c-9 58 -31 96 -66 114 -40 21 -108 19 -147 -5z m140 -22 c22
-18 47 -68 40 -84 -9 -24 -31 -15 -41 15 -27 76 -122 56 -122 -25 0 -46 24
-91 72 -133 75 -66 99 -129 89 -236 -5 -53 -72 -77 -140 -49 -43 17 -58 38
-67 94 -6 36 -5 40 15 40 16 0 21 -6 21 -27 0 -62 93 -102 118 -51 10 22 22
102 14 93 -3 -3 -12 9 -21 25 -9 16 -37 52 -62 79 -71 74 -80 93 -82 161 -2
56 1 64 26 86 32 27 110 34 140 12z"/>
<path d="M90 414 l0 -296 31 6 c17 3 38 6 45 6 11 0 14 35 14 186 0 121 -3
183 -10 179 -5 -3 -10 -43 -10 -88 0 -138 -11 -245 -26 -251 -12 -4 -14 41
-14 259 l0 265 40 0 c24 0 42 -5 45 -12 2 -7 11 -58 20 -113 35 -226 44 -257
71 -234 8 6 14 19 14 28 0 9 5 22 10 27 6 6 13 42 15 80 2 38 9 98 14 134 6
36 11 71 11 78 0 8 16 12 45 12 l45 0 0 -245 c0 -233 -1 -245 -19 -245 -17 0
-19 10 -20 151 -2 223 -19 225 -23 1 l-3 -182 43 0 42 0 0 275 0 275 -63 0
-62 0 -28 -177 c-15 -98 -28 -187 -28 -198 -1 -31 -58 295 -58 338 l-1 37 -70
0 -70 0 0 -296z"/>
<path d="M833 688 c12 -50 37 -196 42 -243 2 -27 12 -94 21 -148 l17 -97 41 1
c23 1 54 4 70 8 l29 6 43 235 c24 129 44 241 44 248 0 8 -15 12 -44 12 -49 0
-48 3 -61 -125 -3 -27 -12 -88 -20 -135 -16 -88 -19 -148 -9 -137 7 6 35 152
54 275 12 77 28 107 47 89 7 -8 -48 -327 -56 -323 -3 2 -7 -21 -8 -51 -1 -31
-5 -59 -10 -63 -4 -4 -27 -10 -50 -14 l-42 -6 -10 52 c-10 54 -58 316 -68 376
-5 31 -4 33 17 30 27 -3 33 -21 50 -143 6 -44 13 -91 15 -105 3 -14 5 -37 7
-52 1 -15 10 -37 19 -50 18 -23 18 -22 12 22 -3 25 -18 115 -32 200 l-27 155
-48 3 c-46 3 -48 2 -43 -20z"/>
<path d="M1177 463 l2 -248 46 -3 45 -3 0 250 0 251 -47 0 -48 0 2 -247z m72
-3 l2 -220 -26 0 -25 0 0 220 0 220 24 0 24 0 1 -220z"/>
<path d="M1330 463 l0 -248 125 0 125 0 0 38 0 37 -75 0 -75 0 0 73 0 72 60
-3 60 -4 0 41 0 41 -60 0 -60 0 0 63 0 62 75 -3 75 -4 0 41 0 41 -125 0 -125
0 0 -247z m230 206 c0 -5 -28 -9 -62 -9 -35 0 -69 -4 -77 -9 -13 -9 -18 -131
-6 -151 3 -5 28 -12 55 -16 61 -8 66 -24 8 -24 -62 0 -70 -9 -73 -76 -3 -89 9
-114 53 -115 21 -1 42 -2 47 -4 6 -1 18 -3 28 -3 9 -1 17 -6 17 -12 0 -6 -38
-10 -94 -10 l-95 0 -1 219 -1 220 38 3 c62 5 163 -3 163 -13z"/>
<path d="M1630 463 l0 -248 45 0 45 -1 0 106 0 106 60 -4 60 -4 0 41 0 41 -60
0 -60 0 0 68 0 67 75 -3 75 -4 0 41 0 41 -120 0 -120 0 0 -247z m215 207 c-3
-5 -32 -10 -64 -10 -31 0 -62 -5 -69 -12 -7 -7 -12 -40 -12 -79 0 -73 12 -93
59 -95 46 -2 52 -4 46 -14 -3 -5 -23 -10 -44 -10 -55 0 -61 -12 -61 -117 0
-85 -2 -93 -19 -93 -11 0 -21 9 -24 23 -7 28 -6 387 0 404 4 9 32 13 100 13
60 0 92 -4 88 -10z"/>
<path d="M1910 458 l0 -253 121 -3 120 -4 -3 39 -3 38 -72 3 -73 3 0 214 0
215 -45 0 -45 0 0 -252z m70 20 c0 -147 4 -204 13 -210 7 -4 31 -8 54 -8 51 0
73 -8 73 -26 0 -12 -16 -13 -87 -8 -49 3 -90 8 -93 11 -7 7 -13 411 -6 429 3
8 14 14 25 14 19 0 20 -9 21 -202z"/>
<path d="M2180 450 l0 -260 50 0 50 0 0 260 0 260 -50 0 -50 0 0 -260z m64
214 c9 -23 7 -454 -1 -454 -5 0 -14 4 -22 9 -13 8 -14 28 -11 399 0 46 4 62
14 62 8 0 17 -7 20 -16z"/>
<path d="M358 500 c-9 -37 -27 -145 -47 -280 -5 -36 -11 -46 -28 -48 -26 -4
-26 -5 -54 173 -12 77 -25 144 -30 150 -14 15 -11 -29 16 -189 13 -82 21 -154
18 -159 -5 -9 84 -3 93 6 10 9 45 283 42 323 -3 38 -5 43 -10 24z"/>
</g>
</svg>
